HIERARCHY
ROOT Hips
{
	OFFSET 0.00000 0.00000 0.00000
	CHANNELS 6 Xposition Yposition Zposition Zrotation Yrotation Xrotation 
	JOINT LHipJoint
	{
		OFFSET 0 0 0
		CHANNELS 3 Zrotation Yrotation Xrotation
		JOINT LeftHip
		{
			OFFSET 1.84395 -1.68683 0.74144
			CHANNELS 3 Zrotation Yrotation Xrotation
			JOINT LeftKnee
			{
				OFFSET 2.27037 -6.23779 0.00000
				CHANNELS 3 Zrotation Yrotation Xrotation
				JOINT LeftAnkle
				{
					OFFSET 2.56918 -7.05877 0.00000
					CHANNELS 3 Zrotation Yrotation Xrotation
					JOINT LeftToe
					{
						OFFSET 0.22276 -0.61202 1.71784
						CHANNELS 3 Zrotation Yrotation Xrotation
						End Site
						{
							OFFSET 0.00000 -0.00000 0.91613
						}
					}
				}
			}
		}
	}
	JOINT RHipJoint
	{
		OFFSET 0 0 0
		CHANNELS 3 Zrotation Yrotation Xrotation
		JOINT RightHip
		{
			OFFSET -1.76833 -1.68684 0.74144
			CHANNELS 3 Zrotation Yrotation Xrotation
			JOINT RightKnee
			{
				OFFSET -2.49360 -6.85110 0.00000
				CHANNELS 3 Zrotation Yrotation Xrotation
				JOINT RightAnkle
				{
					OFFSET -2.55538 -7.02085 0.00000
					CHANNELS 3 Zrotation Yrotation Xrotation
					JOINT RightToe
					{
						OFFSET -0.21516 -0.59115 1.68050
						CHANNELS 3 Zrotation Yrotation Xrotation
						End Site
						{
							OFFSET -0.00000 -0.00000 0.89604
						}
					}
				}
			}
		}
	}
	JOINT lowerback
	{
		OFFSET 0 0 0
		CHANNELS 3 Zrotation Yrotation Xrotation
		JOINT Chest
		{
			OFFSET 0.06382 1.72312 -0.19613
			CHANNELS 3 Zrotation Yrotation Xrotation
			JOINT Chest2
			{
				OFFSET -0.00055 1.73507 0.23859
				CHANNELS 3 Zrotation Yrotation Xrotation
				JOINT lowerneck
				{
					OFFSET 0 0 0
					CHANNELS 3 Zrotation Yrotation Xrotation
					JOINT Neck
					{
						OFFSET 0.03638 1.65562 0.09633
						CHANNELS 3 Zrotation Yrotation Xrotation
						JOINT Head
						{
							OFFSET 0.06388 1.62807 -0.32386
							CHANNELS 3 Zrotation Yrotation Xrotation
							End Site
							{
								OFFSET 0.00995 1.67644 -0.12021
							}
						}
					}
				}
				JOINT LeftCollar
				{
					OFFSET 0 0 0
					CHANNELS 3 Zrotation Yrotation Xrotation
					JOINT LeftShoulder
					{
						OFFSET 3.09648 1.42991 0.28122
CHANNELS 3 Zrotation Xrotation Yrotation
						JOINT LeftElbow
						{
OFFSET 0 -5.118780 -0.000000
CHANNELS 3 Zrotation Xrotation Yrotation
							JOINT LeftWrist
							{
OFFSET 0 -3.599710 0.000000
CHANNELS 3 Zrotation Xrotation Yrotation
								JOINT lhand
								{
									OFFSET 0 0 0
CHANNELS 3 Zrotation Xrotation Yrotation
									JOINT LFingers
									{
OFFSET 0 -0.628770 0.000000
CHANNELS 3 Zrotation Xrotation Yrotation
										End Site
										{
OFFSET 0 -0.506930 0.000000
										}
									}
								}
								JOINT LThumb
								{
OFFSET 0 0.000000 0.000000
CHANNELS 3 Zrotation Xrotation Yrotation
									End Site
									{
OFFSET 0 -0.514670 0.514670
									}
								}
							}
						}
					}
				}
				JOINT RightCollar
				{
					OFFSET 0 0 0
					CHANNELS 3 Zrotation Yrotation Xrotation
					JOINT RightShoulder
					{
						OFFSET -3.33565 1.14597 0.05047
CHANNELS 3 Zrotation Xrotation Yrotation
						JOINT RightElbow
						{
OFFSET 0 -5.490200 0.000000
CHANNELS 3 Zrotation Xrotation Yrotation
							JOINT RightWrist
							{
OFFSET 0 -3.206590 -0.000000
CHANNELS 3 Zrotation Xrotation Yrotation
								JOINT rhand
								{
									OFFSET 0 0 0
CHANNELS 3 Zrotation Xrotation Yrotation
									JOINT RFingers
									{
OFFSET 0 -0.691880 0.000000
CHANNELS 3 Zrotation Xrotation Yrotation
										End Site
										{
OFFSET 0 -0.557810 0.000000
										}
									}
								}
								JOINT RThumb
								{
OFFSET 0 0.000000 0.000000
CHANNELS 3 Zrotation Xrotation Yrotation
									End Site
									{
OFFSET 0 -0.566330 0.566330
									}
								}
							}
						}
					}
				}
			}
		}
	}
}
MOTION
Frames: 9
Frame Time: 0.008333333333333333
-0.317500 17.464100 7.812500 -8.161800 -6.225100 8.443500 0.000000 0.000000 0.000000 -22.988600 -36.369900 25.494200 0.063700 -1.628100 -4.479000 -3.983900 42.555500 -47.179600 1.219600 7.004900 19.730000 0.000000 0.000000 0.000000 27.376500 24.432100 6.872100 -0.014500 -0.778400 2.139200 0.370400 -14.745900 -16.230300 -0.045700 1.378900 -3.792100 5.618600 1.305500 -0.036000 1.433600 2.146600 -9.010800 -1.780100 0.672100 -9.378500 -6.562300 -8.794900 -7.939900 9.212100 -13.667000 23.584600 2.708300 -6.088700 9.874700 -0.000000 -0.000000 0.000000 -0.651500 10.749300 -8.844300 11.359100 -18.836600 1.890200 12.163400 31.793000 11.047100 0.000000 0.000000 0.000000 -7.125000 0.000000 0.000000 -10.498500 18.787700 -6.670500 -0.000000 -0.000000 0.000000 2.750400 13.095800 4.868100 -13.864900 -22.541300 -2.776100 5.751800 36.971600 32.018700 0.000000 0.000000 0.000000 7.125000 0.000000 -0.000000 40.879600 57.023500 -13.575100
-0.318802 17.464400 7.810093 -8.070806 -6.195033 8.450197 0.000000 0.000000 0.000000 -23.169383 -36.509267 25.573110 0.062883 -1.617987 -4.450991 -3.957324 42.588209 -47.336931 1.243686 7.071063 19.926115 0.000000 0.000000 0.000000 27.273816 24.471591 6.872471 -0.014540 -0.778935 2.140747 0.374569 -14.818061 -16.303293 -0.042944 1.337236 -3.677273 5.411449 1.001198 -0.170585 1.772622 1.742429 -9.054737 -1.271592 0.504646 -9.390415 -7.223294 -8.483319 -7.409457 9.203943 -13.128174 23.547165 2.907818 -5.918660 9.755491 0.000000 0.000000 0.000000 -1.343606 11.323077 -8.637751 11.239305 -18.654005 1.851742 13.920436 29.287464 11.009354 0.000000 0.000000 0.000000 -7.125000 0.000000 0.000000 -9.268470 18.726559 -5.879411 0.000000 0.000000 0.000000 2.008864 13.392064 5.762793 -13.728610 -22.345334 -2.724113 5.841485 36.898838 31.964961 0.000000 0.000000 0.000000 7.125000 0.000000 0.000000 40.910445 56.963088 -13.525203
-0.320156 17.465193 7.808839 -8.082192 -6.117667 8.428828 0.000000 0.000000 0.000000 -23.092584 -36.431350 25.517664 0.063487 -1.626026 -4.473281 -4.038950 42.589215 -47.056904 1.191994 6.927953 19.501985 0.000000 0.000000 0.000000 27.312922 24.452838 6.927548 -0.013824 -0.758732 2.085088 0.383841 -14.886481 -16.289499 -0.041484 1.313692 -3.612383 5.328276 0.695730 -0.196965 2.132360 1.341941 -8.864335 -0.813268 0.338265 -9.196838 -7.832937 -8.332896 -7.949864 9.084195 -12.767146 23.716820 2.988346 -5.791519 9.918279 0.000000 0.000000 0.000000 -2.056509 11.260694 -8.185405 11.056889 -18.375298 1.793811 15.722189 27.281925 10.904784 0.000000 0.000000 0.000000 -7.125000 0.000000 0.000000 -8.004019 18.722837 -5.061316 0.000000 0.000000 0.000000 1.302419 13.107351 6.517477 -13.505952 -22.023954 -2.640074 5.579005 36.959914 32.047100 0.000000 0.000000 0.000000 7.125000 0.000000 0.000000 40.748319 57.082177 -13.581204
-0.329904 17.473403 7.821831 -7.529611 -6.074740 8.646543 0.000000 0.000000 0.000000 -23.635857 -36.727322 25.302995 0.060837 -1.591013 -4.376754 -4.011851 42.602923 -47.178340 1.213085 6.986645 19.675934 0.000000 0.000000 0.000000 26.602219 24.575460 6.811677 -0.010042 -0.644972 1.772309 0.431357 -15.202234 -16.160361 -0.024437 1.004775 -2.762018 4.670359 0.663109 -0.743062 1.987803 1.218159 -8.866612 -0.586452 0.327945 -8.881396 -7.900175 -8.418549 -7.940391 9.053194 -12.879973 23.790267 2.973353 -5.851761 9.956987 0.000000 0.000000 0.000000 -2.048380 11.427898 -9.172832 10.831777 -18.029872 1.723544 18.524556 23.910869 10.737064 0.000000 0.000000 0.000000 -7.125000 0.000000 0.000000 -6.028943 18.704621 -3.798340 0.000000 0.000000 0.000000 1.365763 12.994256 6.206657 -13.111729 -21.450535 -2.494125 5.383467 37.208698 32.099790 0.000000 0.000000 0.000000 7.125000 0.000000 0.000000 40.619208 57.164532 -13.612228
-0.335934 17.476541 7.826589 -7.327038 -6.017202 8.811525 0.000000 0.000000 0.000000 -23.821712 -36.990761 25.205781 0.059909 -1.579288 -4.344237 -4.039124 42.688817 -47.258158 1.212121 6.983959 19.667896 0.000000 0.000000 0.000000 26.327123 24.692729 6.715942 -0.008342 -0.589580 1.620146 0.460017 -15.410769 -16.122869 -0.017276 0.849274 -2.334185 4.381710 0.616704 -1.041506 1.964036 1.121909 -8.867177 -0.441877 0.304528 -8.710930 -7.975318 -8.527051 -8.007982 9.014719 -13.024298 23.917482 2.949100 -5.924053 10.033106 0.000000 0.000000 0.000000 -2.095358 11.425884 -8.567122 10.648448 -17.747323 1.667198 19.011086 24.075483 10.924351 0.000000 0.000000 0.000000 -7.125000 0.000000 0.000000 -5.687878 18.474114 -3.610208 0.000000 0.000000 0.000000 1.438247 12.921913 5.837201 -12.815753 -21.016607 -2.386821 5.210340 37.510664 32.158472 0.000000 0.000000 0.000000 7.125000 0.000000 0.000000 40.516370 57.246863 -13.653752
-0.337307 17.475630 7.820141 -7.396573 -5.958357 8.857213 0.000000 0.000000 0.000000 -23.589167 -36.938029 25.037290 0.060802 -1.591509 -4.377926 -4.073723 42.641786 -47.042748 1.199706 6.949626 19.566231 0.000000 0.000000 0.000000 26.404384 24.726676 6.671376 -0.008389 -0.590142 1.621617 0.464080 -15.452831 -16.144318 -0.017887 0.864655 -2.376352 4.440752 0.588820 -1.003254 1.958297 1.088261 -8.853152 -0.479070 0.283273 -8.718824 -7.789527 -8.671541 -8.001429 8.793710 -13.204718 23.895126 2.817485 -6.014604 10.011754 0.000000 0.000000 0.000000 -2.043304 11.259288 -7.841232 10.470780 -17.472545 1.613377 18.965898 24.737623 10.786701 0.000000 0.000000 0.000000 -7.125000 0.000000 0.000000 -5.718232 18.621697 -3.610852 0.000000 0.000000 0.000000 1.666403 12.856552 5.045077 -12.583926 -20.674455 -2.304311 5.042712 38.442521 31.859727 0.000000 0.000000 0.000000 7.125000 0.000000 0.000000 40.077045 57.050182 -13.271144
-0.337788 17.477626 7.815184 -7.351530 -5.937030 8.886959 0.000000 0.000000 0.000000 -23.680482 -37.105376 25.094381 0.060963 -1.593152 -4.382543 -4.025405 42.675227 -47.277808 1.223760 7.016427 19.764042 0.000000 0.000000 0.000000 26.327979 24.726454 6.633474 -0.007837 -0.572372 1.572855 0.466573 -15.485089 -16.169368 -0.018803 0.884597 -2.431325 4.449416 0.656163 -1.008016 1.826689 1.170039 -8.852565 -0.628221 0.317379 -8.708709 -7.611990 -8.833547 -7.820970 8.722586 -13.442229 23.739762 2.740248 -6.126263 9.926246 0.000000 0.000000 0.000000 -1.836047 10.942140 -7.267272 10.354876 -17.292720 1.578797 18.189389 26.478011 9.441590 0.000000 0.000000 0.000000 -7.125000 0.000000 0.000000 -6.266716 20.078907 -3.753351 0.000000 0.000000 0.000000 2.051644 12.776463 3.967355 -12.357949 -20.339225 -2.225165 5.164129 39.282001 31.620177 0.000000 0.000000 0.000000 7.125000 0.000000 0.000000 39.963260 56.837720 -13.009354
-0.339630 17.477331 7.808586 -7.374850 -6.019031 8.990425 0.000000 0.000000 0.000000 -23.758671 -37.377288 25.234656 0.061830 -1.604426 -4.413686 -3.898664 42.738723 -47.835874 1.273219 7.151308 20.164493 0.000000 0.000000 0.000000 26.302905 24.814830 6.485462 -0.008200 -0.583392 1.603176 0.468982 -15.463867 -16.086677 -0.020178 0.917002 -2.520445 4.468020 0.740848 -1.026086 1.786899 1.282171 -8.887267 -0.687454 0.368741 -8.730433 -7.760675 -8.914614 -7.661856 8.948546 -13.592299 23.652490 2.828911 -6.193683 9.908091 0.000000 0.000000 0.000000 -1.770278 10.740381 -6.907125 10.367902 -17.312922 1.582668 17.600838 27.696655 8.312022 0.000000 0.000000 0.000000 -7.125000 0.000000 0.000000 -6.697143 21.290070 -3.834186 0.000000 0.000000 0.000000 2.329027 12.771998 3.275083 -12.229333 -20.147584 -2.180691 5.159935 39.869645 31.750730 0.000000 0.000000 0.000000 7.125000 0.000000 0.000000 40.082015 56.940476 -13.161767
-0.340984 17.477267 7.804113 -7.368177 -6.082930 9.040113 0.000000 0.000000 0.000000 -23.971733 -37.678589 25.516806 0.063351 -1.623632 -4.466660 -3.846688 42.924748 -48.374268 1.305432 7.238009 20.422325 0.000000 0.000000 0.000000 26.302256 24.955212 6.498767 -0.007783 -0.569593 1.565285 0.478358 -15.539483 -16.091026 -0.016764 0.835513 -2.296235 4.501655 0.798123 -1.044493 1.750987 1.357230 -8.895681 -0.748510 0.401613 -8.724371 -8.091047 -8.971023 -7.484358 9.312324 -13.717209 23.588338 2.998439 -6.251740 9.917577 0.000000 0.000000 0.000000 -1.784127 10.600642 -6.523657 10.415495 -17.386879 1.596918 17.549029 27.702476 8.389224 0.000000 0.000000 0.000000 -7.125000 0.000000 0.000000 -6.733442 21.212507 -3.867118 0.000000 0.000000 0.000000 2.501554 12.709797 2.942176 -12.067133 -19.905149 -2.125138 4.934836 40.334808 31.880261 0.000000 0.000000 0.000000 7.125000 0.000000 0.000000 39.997134 57.089031 -13.277642
